<svg width="13" height="22" viewBox="0 0 13 22" fill="none" xmlns="http://www.w3.org/2000/svg">
<path d="M11.0002 0.499985C11.1318 0.499319 11.2623 0.521391 11.3841 0.564934C11.5059 0.608479 11.6167 0.67264 11.7102 0.753735C11.8039 0.835077 11.8783 0.931852 11.9291 1.03848C11.9798 1.14511 12.006 1.25947 12.006 1.37498C12.006 1.49049 11.9798 1.60486 11.9291 1.71149C11.8783 1.81812 11.8039 1.91489 11.7102 1.99623L3.54018 9.14497C2.97838 9.63716 2.66282 10.3043 2.66282 11C2.66282 11.6956 2.97838 12.3628 3.54018 12.855L11.7102 20.0037C11.8985 20.1685 12.0043 20.3919 12.0043 20.625C12.0043 20.858 11.8985 21.0814 11.7102 21.2462C11.5219 21.411 11.2665 21.5035 11.0002 21.5035C10.7339 21.5035 10.4785 21.411 10.2902 21.2462L2.12018 14.0975C1.65455 13.6911 1.28512 13.2083 1.03306 12.6768C0.780993 12.1452 0.651245 11.5754 0.651245 11C0.651245 10.4245 0.780993 9.8547 1.03306 9.32318C1.28512 8.79166 1.65455 8.30888 2.12018 7.90248L10.2902 0.753735C10.3836 0.67264 10.4944 0.608479 10.6163 0.564934C10.7381 0.521391 10.8686 0.499319 11.0002 0.499985Z" fill="white"/>
</svg>
