<svg width="24" height="24" viewBox="0 0 24 24" fill="none" xmlns="http://www.w3.org/2000/svg">
<g clip-path="url(#clip0_81_324)">
<path d="M11.9998 23.9999C11.8682 24.0007 11.7377 23.9755 11.6159 23.9257C11.4941 23.8759 11.3833 23.8026 11.2898 23.7099L3.11982 15.5399C2.65418 15.0755 2.28476 14.5237 2.03269 13.9163C1.78063 13.3088 1.65088 12.6576 1.65088 11.9999C1.65088 11.3423 1.78063 10.6911 2.03269 10.0836C2.28476 9.47615 2.65418 8.9244 3.11982 8.45994L11.2898 0.289941C11.4781 0.101638 11.7335 -0.00415039 11.9998 -0.00415039C12.2661 -0.00415039 12.5215 0.101638 12.7098 0.289941C12.8981 0.478245 13.0039 0.73364 13.0039 0.999941C13.0039 1.26624 12.8981 1.52164 12.7098 1.70994L4.53982 9.87994C3.97801 10.4424 3.66246 11.2049 3.66246 11.9999C3.66246 12.7949 3.97801 13.5574 4.53982 14.1199L12.7098 22.2899C12.8035 22.3829 12.8779 22.4935 12.9287 22.6154C12.9795 22.7372 13.0056 22.8679 13.0056 22.9999C13.0056 23.132 12.9795 23.2627 12.9287 23.3845C12.8779 23.5064 12.8035 23.617 12.7098 23.7099C12.6164 23.8026 12.5056 23.8759 12.3837 23.9257C12.2619 23.9755 12.1314 24.0007 11.9998 23.9999Z" fill="white"/>
<path d="M21.9999 23.9999C21.8683 24.0007 21.7378 23.9755 21.616 23.9257C21.4941 23.8759 21.3833 23.8026 21.2899 23.7099L11.7099 14.1199C11.1481 13.5574 10.8325 12.7949 10.8325 11.9999C10.8325 11.2049 11.1481 10.4424 11.7099 9.87994L21.2899 0.289941C21.4782 0.101638 21.7336 -0.00415039 21.9999 -0.00415039C22.2662 -0.00415039 22.5216 0.101638 22.7099 0.289941C22.8982 0.478245 23.004 0.73364 23.004 0.999941C23.004 1.26624 22.8982 1.52164 22.7099 1.70994L13.1199 11.2899C13.0262 11.3829 12.9518 11.4935 12.901 11.6154C12.8502 11.7372 12.8241 11.8679 12.8241 11.9999C12.8241 12.132 12.8502 12.2627 12.901 12.3845C12.9518 12.5064 13.0262 12.617 13.1199 12.7099L22.7099 22.2899C22.8036 22.3829 22.878 22.4935 22.9288 22.6154C22.9795 22.7372 23.0057 22.8679 23.0057 22.9999C23.0057 23.132 22.9795 23.2627 22.9288 23.3845C22.878 23.5064 22.8036 23.617 22.7099 23.7099C22.6164 23.8026 22.5056 23.8759 22.3838 23.9257C22.2619 23.9755 22.1315 24.0007 21.9999 23.9999Z" fill="white"/>
</g>
<defs>
<clipPath id="clip0_81_324">
<rect width="24" height="24" fill="white"/>
</clipPath>
</defs>
</svg>
