<svg width="25" height="23" viewBox="0 0 25 23" fill="none" xmlns="http://www.w3.org/2000/svg">
<path d="M18.1469 0.916504C17.0209 0.934019 15.9194 1.24836 14.9537 1.82778C13.988 2.40719 13.1923 3.23117 12.6469 4.2165C12.1016 3.23117 11.3059 2.40719 10.3402 1.82778C9.37447 1.24836 8.27298 0.934019 7.14693 0.916504C5.35187 0.994495 3.66064 1.77976 2.44271 3.10074C1.22479 4.42171 0.57918 6.17103 0.646931 7.9665C0.646931 12.5135 5.43293 17.4795 9.44693 20.8465C10.3431 21.5996 11.4763 22.0125 12.6469 22.0125C13.8176 22.0125 14.9507 21.5996 15.8469 20.8465C19.8609 17.4795 24.6469 12.5135 24.6469 7.9665C24.7147 6.17103 24.0691 4.42171 22.8511 3.10074C21.6332 1.77976 19.942 0.994495 18.1469 0.916504ZM14.5619 19.3165C14.0259 19.7679 13.3477 20.0154 12.6469 20.0154C11.9462 20.0154 11.2679 19.7679 10.7319 19.3165C5.59393 15.0055 2.64693 10.8695 2.64693 7.9665C2.57857 6.70122 3.0133 5.46023 3.85629 4.5142C4.69929 3.56817 5.88216 2.99385 7.14693 2.9165C8.4117 2.99385 9.59457 3.56817 10.4376 4.5142C11.2806 5.46023 11.7153 6.70122 11.6469 7.9665C11.6469 8.23172 11.7523 8.48607 11.9398 8.67361C12.1274 8.86115 12.3817 8.9665 12.6469 8.9665C12.9121 8.9665 13.1665 8.86115 13.354 8.67361C13.5416 8.48607 13.6469 8.23172 13.6469 7.9665C13.5786 6.70122 14.0133 5.46023 14.8563 4.5142C15.6993 3.56817 16.8822 2.99385 18.1469 2.9165C19.4117 2.99385 20.5946 3.56817 21.4376 4.5142C22.2806 5.46023 22.7153 6.70122 22.6469 7.9665C22.6469 10.8695 19.6999 15.0055 14.5619 19.3125V19.3165Z" fill="white"/>
</svg>
