<svg width="12" height="12" viewBox="0 0 12 12" fill="none" xmlns="http://www.w3.org/2000/svg">
<g id="fi-rr-angle-double-left" clip-path="url(#clip0_127_1391)">
<path id="Vector" d="M6.00015 12.0001C5.93435 12.0005 5.86912 11.9879 5.8082 11.963C5.74728 11.9381 5.69187 11.9014 5.64515 11.8551L1.56015 7.77009C1.32734 7.53786 1.14262 7.26199 1.01659 6.95826C0.890558 6.65453 0.825684 6.32893 0.825684 6.00009C0.825684 5.67126 0.890558 5.34565 1.01659 5.04192C1.14262 4.7382 1.32734 4.46232 1.56015 4.23009L5.64515 0.145093C5.7393 0.0509408 5.867 -0.00195312 6.00015 -0.00195312C6.1333 -0.00195313 6.261 0.0509408 6.35515 0.145093C6.4493 0.239245 6.5022 0.366942 6.5022 0.500093C6.5022 0.633244 6.4493 0.760941 6.35515 0.855093L2.27015 4.94009C1.98925 5.22134 1.83147 5.60259 1.83147 6.00009C1.83147 6.39759 1.98925 6.77884 2.27015 7.06009L6.35515 11.1451C6.40202 11.1916 6.43921 11.2469 6.4646 11.3078C6.48998 11.3687 6.50305 11.4341 6.50305 11.5001C6.50305 11.5661 6.48998 11.6315 6.4646 11.6924C6.43921 11.7533 6.40202 11.8086 6.35515 11.8551C6.30843 11.9014 6.25302 11.9381 6.19211 11.963C6.13119 11.9879 6.06596 12.0005 6.00015 12.0001Z" fill="white"/>
<path id="Vector_2" d="M11.0002 12.0001C10.9344 12.0005 10.8691 11.9879 10.8082 11.963C10.7473 11.9381 10.6919 11.9014 10.6452 11.8551L5.85518 7.06009C5.57428 6.77884 5.4165 6.39759 5.4165 6.00009C5.4165 5.60259 5.57428 5.22134 5.85518 4.94009L10.6452 0.145093C10.7393 0.0509408 10.867 -0.00195312 11.0002 -0.00195312C11.1333 -0.00195313 11.261 0.0509408 11.3552 0.145093C11.4493 0.239245 11.5022 0.366942 11.5022 0.500093C11.5022 0.633244 11.4493 0.760941 11.3552 0.855093L6.56018 5.64509C6.51332 5.69157 6.47612 5.74687 6.45074 5.8078C6.42535 5.86873 6.41228 5.93409 6.41228 6.00009C6.41228 6.0661 6.42535 6.13145 6.45074 6.19238C6.47612 6.25331 6.51332 6.30861 6.56018 6.35509L11.3552 11.1451C11.402 11.1916 11.4392 11.2469 11.4646 11.3078C11.49 11.3687 11.5031 11.4341 11.5031 11.5001C11.5031 11.5661 11.49 11.6315 11.4646 11.6924C11.4392 11.7533 11.402 11.8086 11.3552 11.8551C11.3085 11.9014 11.2531 11.9381 11.1921 11.963C11.1312 11.9879 11.066 12.0005 11.0002 12.0001Z" fill="white"/>
</g>
<defs>
<clipPath id="clip0_127_1391">
<rect width="12" height="12" fill="white"/>
</clipPath>
</defs>
</svg>
