<svg width="24" height="24" viewBox="0 0 24 24" fill="none" xmlns="http://www.w3.org/2000/svg">
<g clip-path="url(#clip0_172_1070)">
<path d="M18.122 14.1218C18.4008 13.8432 18.6219 13.5124 18.7728 13.1483C18.9237 12.7842 19.0014 12.3939 19.0014 11.9998C19.0014 11.6056 18.9237 11.2154 18.7728 10.8513C18.6219 10.4872 18.4008 10.1564 18.122 9.87777L14.911 6.66677C14.7206 6.49461 14.4713 6.40227 14.2147 6.40886C13.958 6.41545 13.7138 6.52047 13.5325 6.70217C13.3512 6.88388 13.2467 7.12835 13.2406 7.38498C13.2346 7.64161 13.3274 7.89073 13.5 8.08078L16.427 11.0068L1 10.9998C0.734784 10.9998 0.48043 11.1051 0.292893 11.2927C0.105357 11.4802 0 11.7346 0 11.9998H0C0 12.265 0.105357 12.5193 0.292893 12.7069C0.48043 12.8944 0.734784 12.9998 1 12.9998L16.408 13.0088L13.5 15.9188C13.3125 16.1064 13.2072 16.3609 13.2073 16.6261C13.2074 16.8914 13.3129 17.1458 13.5005 17.3333C13.6881 17.5208 13.9426 17.6261 14.2079 17.626C14.4731 17.6259 14.7275 17.5204 14.915 17.3328L18.122 14.1218Z" fill="white"/>
<path d="M15.9998 1C15.9998 1.26522 16.1052 1.51957 16.2927 1.70711C16.4803 1.89464 16.7346 2 16.9998 2H20.9998C21.2651 2 21.5194 2.10536 21.7069 2.29289C21.8945 2.48043 21.9998 2.73478 21.9998 3V21C21.9998 21.2652 21.8945 21.5196 21.7069 21.7071C21.5194 21.8946 21.2651 22 20.9998 22H16.9998C16.7346 22 16.4803 22.1054 16.2927 22.2929C16.1052 22.4804 15.9998 22.7348 15.9998 23C15.9998 23.2652 16.1052 23.5196 16.2927 23.7071C16.4803 23.8946 16.7346 24 16.9998 24H20.9998C21.7955 24 22.5585 23.6839 23.1212 23.1213C23.6838 22.5587 23.9998 21.7956 23.9998 21V3C23.9998 2.20435 23.6838 1.44129 23.1212 0.878679C22.5585 0.316071 21.7955 0 20.9998 0H16.9998C16.7346 0 16.4803 0.105356 16.2927 0.292892C16.1052 0.480429 15.9998 0.734783 15.9998 1Z" fill="white"/>
</g>
<defs>
<clipPath id="clip0_172_1070">
<rect width="24" height="24" fill="white" transform="matrix(0 -1 1 0 0 24)"/>
</clipPath>
</defs>
</svg>
