<svg width="15" height="14" viewBox="0 0 15 14" fill="none" xmlns="http://www.w3.org/2000/svg">
<path d="M6.68369 0.397704C6.94539 -0.132567 7.70154 -0.132568 7.96325 0.397703L9.67361 3.86328C9.77753 4.07385 9.97842 4.21981 10.2108 4.25357L14.0353 4.8093C14.6205 4.89434 14.8541 5.61348 14.4307 6.02624L11.6633 8.72381C11.4951 8.88772 11.4184 9.12387 11.4581 9.35532L12.1114 13.1644C12.2113 13.7472 11.5996 14.1916 11.0762 13.9165L7.65547 12.1181C7.44762 12.0088 7.19931 12.0088 6.99147 12.1181L3.57074 13.9165C3.04733 14.1916 2.43559 13.7472 2.53555 13.1644L3.18885 9.35532C3.22855 9.12387 3.15181 8.88772 2.98366 8.72381L0.216234 6.02624C-0.207212 5.61348 0.0264501 4.89434 0.611639 4.8093L4.43613 4.25357C4.66851 4.21981 4.8694 4.07385 4.97332 3.86328L6.68369 0.397704Z" fill="#FFC700"/>
<path d="M6.68369 0.397704C6.94539 -0.132567 7.70154 -0.132568 7.96325 0.397703L9.67361 3.86328C9.77753 4.07385 9.97842 4.21981 10.2108 4.25357L14.0353 4.8093C14.6205 4.89434 14.8541 5.61348 14.4307 6.02624L11.6633 8.72381C11.4951 8.88772 11.4184 9.12387 11.4581 9.35532L12.1114 13.1644C12.2113 13.7472 11.5996 14.1916 11.0762 13.9165L7.65547 12.1181C7.44762 12.0088 7.19931 12.0088 6.99147 12.1181L3.57074 13.9165C3.04733 14.1916 2.43559 13.7472 2.53555 13.1644L3.18885 9.35532C3.22855 9.12387 3.15181 8.88772 2.98366 8.72381L0.216234 6.02624C-0.207212 5.61348 0.0264501 4.89434 0.611639 4.8093L4.43613 4.25357C4.66851 4.21981 4.8694 4.07385 4.97332 3.86328L6.68369 0.397704Z" fill="#FFC700"/>
<path d="M6.68369 0.397704C6.94539 -0.132567 7.70154 -0.132568 7.96325 0.397703L9.67361 3.86328C9.77753 4.07385 9.97842 4.21981 10.2108 4.25357L14.0353 4.8093C14.6205 4.89434 14.8541 5.61348 14.4307 6.02624L11.6633 8.72381C11.4951 8.88772 11.4184 9.12387 11.4581 9.35532L12.1114 13.1644C12.2113 13.7472 11.5996 14.1916 11.0762 13.9165L7.65547 12.1181C7.44762 12.0088 7.19931 12.0088 6.99147 12.1181L3.57074 13.9165C3.04733 14.1916 2.43559 13.7472 2.53555 13.1644L3.18885 9.35532C3.22855 9.12387 3.15181 8.88772 2.98366 8.72381L0.216234 6.02624C-0.207212 5.61348 0.0264501 4.89434 0.611639 4.8093L4.43613 4.25357C4.66851 4.21981 4.8694 4.07385 4.97332 3.86328L6.68369 0.397704Z" fill="#FFC700"/>
<path d="M6.68369 0.397704C6.94539 -0.132567 7.70154 -0.132568 7.96325 0.397703L9.67361 3.86328C9.77753 4.07385 9.97842 4.21981 10.2108 4.25357L14.0353 4.8093C14.6205 4.89434 14.8541 5.61348 14.4307 6.02624L11.6633 8.72381C11.4951 8.88772 11.4184 9.12387 11.4581 9.35532L12.1114 13.1644C12.2113 13.7472 11.5996 14.1916 11.0762 13.9165L7.65547 12.1181C7.44762 12.0088 7.19931 12.0088 6.99147 12.1181L3.57074 13.9165C3.04733 14.1916 2.43559 13.7472 2.53555 13.1644L3.18885 9.35532C3.22855 9.12387 3.15181 8.88772 2.98366 8.72381L0.216234 6.02624C-0.207212 5.61348 0.0264501 4.89434 0.611639 4.8093L4.43613 4.25357C4.66851 4.21981 4.8694 4.07385 4.97332 3.86328L6.68369 0.397704Z" fill="#FFC700"/>
<path d="M6.68369 0.397704C6.94539 -0.132567 7.70154 -0.132568 7.96325 0.397703L9.67361 3.86328C9.77753 4.07385 9.97842 4.21981 10.2108 4.25357L14.0353 4.8093C14.6205 4.89434 14.8541 5.61348 14.4307 6.02624L11.6633 8.72381C11.4951 8.88772 11.4184 9.12387 11.4581 9.35532L12.1114 13.1644C12.2113 13.7472 11.5996 14.1916 11.0762 13.9165L7.65547 12.1181C7.44762 12.0088 7.19931 12.0088 6.99147 12.1181L3.57074 13.9165C3.04733 14.1916 2.43559 13.7472 2.53555 13.1644L3.18885 9.35532C3.22855 9.12387 3.15181 8.88772 2.98366 8.72381L0.216234 6.02624C-0.207212 5.61348 0.0264501 4.89434 0.611639 4.8093L4.43613 4.25357C4.66851 4.21981 4.8694 4.07385 4.97332 3.86328L6.68369 0.397704Z" fill="#FFC700"/>
</svg>
