<svg width="332" height="432" viewBox="0 0 332 432" fill="none" xmlns="http://www.w3.org/2000/svg">
<g clip-path="url(#clip0_335_2673)">
<path d="M97.9173 162.133L5.24713 142.091L4.0428 141.831C3.4295 141.697 2.79106 141.74 2.2009 141.954C1.61073 142.168 1.09281 142.545 0.706686 143.041C0.320565 143.537 0.0819166 144.132 0.018203 144.758C-0.0455106 145.384 0.0683027 146.015 0.346527 146.579L37.1403 221.491C37.3785 221.972 37.7284 222.389 38.1608 222.707C38.5932 223.024 39.0953 223.233 39.6248 223.315C40.1561 223.398 40.6994 223.35 41.2079 223.175C41.7165 223 42.1749 222.704 42.5437 222.311L68.0998 195.295C68.2816 195.098 68.5021 194.941 68.7474 194.834C68.9928 194.726 69.2576 194.671 69.5253 194.671C69.8892 194.666 70.2477 194.76 70.5623 194.944C70.8769 195.127 71.1359 195.393 71.3114 195.712L76.5461 205.419C76.8802 206.067 77.4207 206.583 78.0816 206.887C78.7424 207.191 79.4856 207.264 80.1928 207.095L80.2188 207.089C80.9346 206.937 81.5786 206.548 82.0473 205.985C82.516 205.422 82.7822 204.717 82.8031 203.984L83.8517 181.576C83.8642 181.296 83.9338 181.022 84.0563 180.771C84.1878 180.522 84.3662 180.301 84.5817 180.12L99.3252 167.987C99.8099 167.588 100.173 167.06 100.372 166.464C100.571 165.868 100.599 165.228 100.452 164.617C100.305 164.006 99.9892 163.449 99.5409 163.009C99.0926 162.57 98.5299 162.266 97.9173 162.133ZM98.4833 166.955L83.7398 179.089C83.5477 179.244 83.3736 179.421 83.2208 179.615L5.07964 144.085C5.01072 144.053 4.93883 144.028 4.86498 144.01C4.56358 143.932 4.2445 143.962 3.96294 144.095C3.68137 144.228 3.45502 144.455 3.32303 144.738C3.19104 145.021 3.16171 145.341 3.24012 145.643C3.31852 145.945 3.49974 146.21 3.75241 146.392L68.0019 193.709C67.6759 193.879 67.3815 194.104 67.1318 194.374L41.576 221.39C41.3542 221.624 41.0794 221.801 40.7749 221.905C40.4704 222.01 40.1452 222.039 39.8269 221.991C39.5086 221.943 39.2066 221.818 38.9467 221.628C38.6867 221.438 38.4765 221.187 38.3337 220.898L1.53991 145.986C1.37543 145.648 1.30907 145.27 1.3484 144.895C1.38774 144.521 1.53119 144.165 1.7624 143.868C1.99362 143.571 2.30331 143.346 2.65619 143.217C3.00906 143.088 3.39094 143.061 3.75831 143.14L4.99124 143.407L97.6325 163.441C98.0003 163.521 98.3383 163.703 98.6077 163.967C98.8771 164.23 99.0671 164.564 99.1559 164.931C99.2447 165.298 99.2287 165.682 99.1097 166.04C98.9908 166.398 98.7737 166.715 98.4833 166.955Z" fill="#C00000"/>
<path d="M117.671 429.367C109.358 427.116 99.2421 417.755 101.408 404.887C102.482 398.505 106.605 394.374 110.879 391.702C116.792 388.008 123.526 386.615 130.015 386.264C137.501 385.858 144.977 386.881 152.407 387.963C159.741 389.031 167.075 389.987 174.442 390.571C203.269 392.838 232.273 390.679 260.449 384.168C267.404 382.559 274.317 380.672 281.187 378.506C287.699 376.584 294.064 374.199 300.236 371.368C308.405 367.436 321.69 359.784 320.607 345.614C320.032 338.101 315.619 332.1 311.167 327.919C305.785 322.864 299.556 319.538 293.456 316.308C265.081 301.285 236.651 286.44 208.249 271.507C201.62 268.022 194.947 264.63 188.514 260.546C182.491 256.722 176.496 252.281 171.649 246.139C167.415 240.775 163.632 233.574 163.766 225.524C163.876 218.848 166.907 213.183 170.618 208.949C179.806 198.467 192.804 194.216 204.551 191.99C219.146 189.224 233.953 189.239 248.557 186.568C260.349 184.411 272.949 180.248 282.539 170.493C286.596 166.525 289.466 161.498 290.824 155.982C292.048 150.203 291.453 144.187 289.12 138.762C286.522 132.541 282.378 127.585 278.021 123.527C273.015 118.93 267.338 115.128 261.187 112.252C248.234 106.063 234.614 102.841 221.346 98.0925C214.839 95.7636 208.266 93.2097 202.224 89.2094C197.106 85.8202 191.53 81.252 188.682 74.4586C182.806 60.4422 196.824 52.0886 204.767 48.9244C210.165 46.8715 215.726 45.2755 221.39 44.1531C222.588 43.8953 222.08 41.4984 220.888 41.755C214.925 42.9205 209.082 44.6311 203.431 46.8655C198.641 48.8607 193.699 51.4828 189.936 55.9949C188.224 58.0321 186.957 60.4076 186.219 62.9674C185.481 65.5271 185.289 68.2139 185.654 70.8531C186.65 77.5783 190.982 82.7603 195.05 86.5137C200.43 91.4771 206.565 94.7186 212.784 97.3609C219.334 100.144 226.023 102.313 232.71 104.44C246.072 108.691 260.033 112.479 272.096 121.524C280.533 127.852 291.996 139.716 289.189 154.422C287.943 160.95 284.16 166.053 280.077 169.807C275.282 174.086 269.753 177.457 263.757 179.756C237.028 190.541 207.61 182.828 181.569 197.476C172.715 202.457 161.96 211.525 161.874 225.792C161.829 233.204 164.792 240.002 168.456 245.375C172.843 251.81 178.526 256.569 184.307 260.546C190.394 264.58 196.715 268.249 203.235 271.533C210.359 275.285 217.484 279.031 224.61 282.772L267.858 305.51L289.345 316.807C295.904 320.255 302.63 323.562 308.593 328.624C313.475 332.768 319.243 339.567 318.745 348.01C318.35 354.714 313.907 359.553 309.848 362.788C304.591 366.977 298.686 369.686 292.81 371.937C286.033 374.534 279.145 376.688 272.244 378.625C258.106 382.587 243.678 385.418 229.094 387.092C214.547 388.772 199.891 389.319 185.26 388.731C177.867 388.432 170.485 387.839 163.115 386.952C155.518 386.035 147.954 384.621 140.337 383.994C133.448 383.427 126.493 383.559 119.708 385.381C114.043 386.903 108.058 389.616 103.758 394.91C100.589 398.951 99.0015 404.014 99.2953 409.147C99.5864 414.269 101.408 419.184 104.523 423.255C107.687 427.412 112.133 430.404 117.169 431.766C118.356 432.087 118.864 429.69 117.671 429.367Z" fill="#E6E6E6"/>
<path d="M332 430.503H116.021V432H332V430.503Z" fill="#3F3D56"/>
<path d="M314.696 359.966C322.488 359.966 328.805 353.633 328.805 345.821C328.805 338.008 322.488 331.675 314.696 331.675C306.903 331.675 300.586 338.008 300.586 345.821C300.586 353.633 306.903 359.966 314.696 359.966Z" fill="#E6E6E6"/>
<path d="M288.955 160.591C296.747 160.591 303.064 154.258 303.064 146.446C303.064 138.633 296.747 132.3 288.955 132.3C281.163 132.3 274.846 138.633 274.846 146.446C274.846 154.258 281.163 160.591 288.955 160.591Z" fill="#E6E6E6"/>
<path d="M257.055 0.591728L217.878 17.6667C216.148 18.4231 214.788 19.8368 214.096 21.5975C213.404 23.3583 213.437 25.3223 214.187 27.0588L226.352 55.1142C227.107 56.8489 228.517 58.2128 230.273 58.9065C232.029 59.6002 233.988 59.5672 235.72 58.8147L274.897 41.7397C276.627 40.9833 277.988 39.5696 278.68 37.8089C279.372 36.0481 279.339 34.084 278.588 32.3476L266.423 4.29218C265.669 2.55745 264.259 1.19361 262.502 0.499882C260.746 -0.193848 258.787 -0.160816 257.055 0.591728ZM258.677 4.33245C258.911 4.23144 259.157 4.16041 259.409 4.12104L246.164 29.1752L218.96 21.7114C219.129 21.592 219.31 21.4901 219.5 21.4074L258.677 4.33245ZM273.275 37.999L234.098 55.0739C233.356 55.3964 232.516 55.4106 231.764 55.1133C231.011 54.8159 230.407 54.2315 230.083 53.488L218.028 25.6845L246.662 33.5407C247.108 33.663 247.582 33.6294 248.006 33.4454C248.43 33.2615 248.78 32.9381 248.996 32.5286L262.86 6.30473L274.857 33.9738C275.179 34.718 275.193 35.5597 274.896 36.3143C274.6 37.0689 274.017 37.6748 273.275 37.999Z" fill="#E6E6E6"/>
<path d="M213.113 243.949C232.815 243.949 248.786 227.937 248.786 208.185C248.786 188.433 232.815 172.421 213.113 172.421C193.412 172.421 177.441 188.433 177.441 208.185C177.441 227.937 193.412 243.949 213.113 243.949Z" fill="#C00000"/>
<path d="M207.492 430.943H197.654C196.506 430.942 195.405 430.483 194.592 429.669C193.78 428.855 193.323 427.751 193.322 426.599V344.395C193.323 343.244 193.78 342.14 194.592 341.325C195.405 340.511 196.506 340.053 197.654 340.052H207.492C208.641 340.053 209.742 340.511 210.554 341.325C211.367 342.14 211.824 343.244 211.825 344.395V426.599C211.824 427.751 211.367 428.855 210.554 429.669C209.742 430.483 208.641 430.942 207.492 430.943Z" fill="#2F2E41"/>
<path d="M226.95 430.943H217.112C215.964 430.942 214.862 430.483 214.05 429.669C213.238 428.855 212.781 427.751 212.78 426.599V344.395C212.781 343.244 213.238 342.14 214.05 341.325C214.862 340.511 215.964 340.053 217.112 340.052H226.95C228.099 340.053 229.2 340.511 230.012 341.325C230.824 342.14 231.281 343.244 231.283 344.395V426.599C231.281 427.751 230.824 428.855 230.012 429.669C229.2 430.483 228.099 430.942 226.95 430.943Z" fill="#2F2E41"/>
<path d="M267.717 335.8C267.285 335.799 266.856 335.734 266.442 335.607C265.898 335.441 265.391 335.169 264.953 334.805C264.514 334.442 264.151 333.995 263.886 333.49L225.45 260.877C225.183 260.373 225.018 259.822 224.964 259.254C224.91 258.686 224.968 258.113 225.135 257.568C225.301 257.023 225.574 256.516 225.936 256.076C226.298 255.636 226.743 255.272 227.246 255.005L235.935 250.381C236.438 250.114 236.988 249.948 237.555 249.894C238.121 249.839 238.693 249.897 239.237 250.064C239.781 250.232 240.286 250.505 240.725 250.868C241.164 251.231 241.527 251.678 241.794 252.182L280.229 324.794C280.496 325.298 280.661 325.85 280.715 326.418C280.769 326.985 280.711 327.558 280.544 328.104C280.378 328.649 280.105 329.156 279.743 329.596C279.381 330.036 278.935 330.4 278.433 330.667L269.743 335.291C269.12 335.624 268.424 335.799 267.717 335.8Z" fill="#C00000"/>
<path d="M187.705 268.87C187.185 268.87 186.669 268.775 186.183 268.591L109.479 239.54C108.947 239.338 108.46 239.033 108.045 238.643C107.631 238.252 107.297 237.784 107.064 237.264C106.83 236.744 106.701 236.183 106.683 235.613C106.666 235.043 106.761 234.475 106.963 233.942L110.433 224.715C110.842 223.639 111.66 222.769 112.708 222.296C113.755 221.823 114.947 221.785 116.022 222.191L192.724 251.235C193.797 251.645 194.664 252.463 195.137 253.512C195.61 254.561 195.65 255.754 195.247 256.832L191.771 266.06C191.457 266.886 190.9 267.597 190.174 268.099C189.448 268.601 188.587 268.87 187.705 268.87Z" fill="#C00000"/>
<path d="M235.058 250.163H190.358C188.15 250.163 186.359 251.958 186.359 254.172V349.381C186.359 351.596 188.15 353.391 190.358 353.391H235.058C237.266 353.391 239.057 351.596 239.057 349.381V254.172C239.057 251.958 237.266 250.163 235.058 250.163Z" fill="#2F2E41"/>
<path d="M239.462 173.162C241.558 177.773 243.564 183.346 241.308 188.279C240.48 190.272 238.928 191.874 236.965 192.761C234.64 193.691 232.105 193.161 229.951 192.036C225.414 189.67 222.49 185.271 218.439 182.258C216.596 180.819 214.415 179.876 212.105 179.521C209.443 179.173 206.801 179.803 204.198 180.289C201.429 180.805 198.568 181.078 196.005 179.671C193.751 178.349 191.987 176.329 190.979 173.913C190.451 172.739 188.728 173.757 189.252 174.925C191.431 179.775 195.937 183.079 201.352 182.697C204.216 182.495 206.983 181.567 209.853 181.434C212.471 181.348 215.038 182.17 217.12 183.764C221.568 186.942 224.586 191.823 229.688 194.131C232.095 195.22 234.851 195.674 237.389 194.736C239.578 193.882 241.402 192.29 242.546 190.234C245.895 184.454 243.744 177.772 241.189 172.15C240.656 170.977 238.932 171.995 239.462 173.162Z" fill="#2F2E41"/>
<path d="M217.057 220.126C214.854 220.064 212.111 219.987 209.998 218.44C209.369 217.96 208.853 217.349 208.484 216.648C208.116 215.947 207.904 215.174 207.865 214.382C207.827 213.82 207.919 213.256 208.134 212.735C208.349 212.214 208.682 211.75 209.105 211.38C210.208 210.445 211.819 210.225 213.557 210.738L211.757 197.556L213.079 197.374L215.193 212.871L214.091 212.364C212.813 211.776 211.057 211.476 209.966 212.4C209.698 212.642 209.49 212.942 209.356 213.278C209.223 213.613 209.169 213.975 209.198 214.335C209.23 214.924 209.389 215.499 209.662 216.021C209.936 216.543 210.319 217 210.785 217.361C212.429 218.565 214.615 218.721 217.095 218.79L217.057 220.126Z" fill="#2F2E41"/>
<path d="M205.226 198.693H198.046V200.029H205.226V198.693Z" fill="#2F2E41"/>
<path d="M227.888 198.693H220.709V200.029H227.888V198.693Z" fill="#2F2E41"/>
<path d="M186.3 268.279L154.777 258.642C153.794 258.341 152.964 257.673 152.459 256.775C151.955 255.877 151.814 254.819 152.067 253.82L155.747 239.283C155.893 238.709 156.163 238.174 156.539 237.717C156.915 237.26 157.388 236.892 157.923 236.64C158.458 236.388 159.041 236.258 159.632 236.26C160.223 236.261 160.807 236.394 161.34 236.648L192.606 251.548C193.597 251.925 194.399 252.68 194.835 253.648C195.272 254.617 195.308 255.719 194.936 256.714L191.459 265.942C191.083 266.937 190.329 267.742 189.361 268.18C188.394 268.618 187.293 268.654 186.3 268.279Z" fill="#2F2E41"/>
<path d="M226.016 260.055L239.535 290.188C239.957 291.127 240.723 291.868 241.675 292.257C242.628 292.645 243.692 292.651 244.648 292.273L258.567 286.776C259.117 286.559 259.612 286.222 260.016 285.79C260.421 285.358 260.725 284.842 260.907 284.278C261.088 283.715 261.143 283.117 261.067 282.53C260.991 281.942 260.786 281.379 260.467 280.88L241.773 251.668C241.275 250.731 240.426 250.029 239.413 249.717C238.4 249.405 237.305 249.509 236.368 250.004L227.676 254.629C226.739 255.128 226.038 255.98 225.727 256.998C225.415 258.015 225.52 259.115 226.016 260.055Z" fill="#2F2E41"/>
<path d="M97.9173 162.133L5.24713 142.091L4.0428 141.831C3.4295 141.697 2.79106 141.74 2.2009 141.954C1.61073 142.168 1.09281 142.545 0.706686 143.041C0.320565 143.537 0.0819166 144.132 0.018203 144.758C-0.0455106 145.384 0.0683027 146.015 0.346527 146.579L37.1403 221.491C37.3785 221.972 37.7284 222.389 38.1608 222.707C38.5932 223.024 39.0953 223.233 39.6248 223.315C40.1561 223.398 40.6994 223.35 41.2079 223.175C41.7165 223 42.1749 222.704 42.5437 222.311L68.0998 195.295C68.2816 195.098 68.5021 194.941 68.7474 194.834C68.9928 194.726 69.2576 194.671 69.5253 194.671C69.8892 194.666 70.2477 194.76 70.5623 194.944C70.8769 195.127 71.1359 195.393 71.3114 195.712L76.5461 205.419C76.8802 206.067 77.4207 206.583 78.0816 206.887C78.7424 207.191 79.4856 207.264 80.1928 207.095L80.2188 207.089C80.9346 206.937 81.5786 206.548 82.0473 205.985C82.516 205.422 82.7822 204.717 82.8031 203.984L83.8517 181.576C83.8642 181.296 83.9338 181.022 84.0563 180.771C84.1878 180.522 84.3662 180.301 84.5817 180.12L99.3252 167.987C99.8099 167.588 100.173 167.06 100.372 166.464C100.571 165.868 100.599 165.228 100.452 164.617C100.305 164.006 99.9892 163.449 99.5409 163.009C99.0926 162.57 98.5299 162.266 97.9173 162.133ZM98.4833 166.955L83.7398 179.089C83.5477 179.244 83.3736 179.421 83.2208 179.615C83.083 179.787 82.9641 179.975 82.8659 180.173C82.7631 180.375 82.6821 180.588 82.6242 180.808L82.6256 180.814C82.5645 181.043 82.5293 181.279 82.5206 181.515L81.4723 203.923C81.4635 204.363 81.3055 204.788 81.0241 205.126C80.7427 205.465 80.3548 205.698 79.9241 205.786L79.9111 205.789C79.4868 205.894 79.0393 205.853 78.6411 205.672C78.243 205.491 77.9176 205.18 77.7178 204.79L72.4817 195.076C72.2119 194.577 71.8193 194.154 71.341 193.85C70.8628 193.545 70.3148 193.368 69.7491 193.335L69.7427 193.336C69.6666 193.333 69.5908 193.329 69.5164 193.332C68.9885 193.332 68.4686 193.461 68.002 193.709C67.6759 193.879 67.3816 194.104 67.1318 194.374L41.576 221.39C41.3542 221.624 41.0794 221.801 40.7749 221.905C40.4704 222.01 40.1452 222.039 39.8269 221.991C39.5086 221.943 39.2067 221.818 38.9467 221.628C38.6868 221.438 38.4765 221.187 38.3337 220.898L1.53991 145.986C1.37543 145.648 1.30907 145.27 1.3484 144.895C1.38774 144.521 1.53119 144.165 1.7624 143.868C1.99362 143.571 2.30331 143.346 2.65619 143.217C3.00906 143.088 3.39094 143.061 3.75831 143.14L4.99124 143.407L97.6325 163.441C98.0003 163.521 98.3383 163.703 98.6077 163.967C98.8771 164.23 99.0671 164.564 99.1559 164.931C99.2447 165.298 99.2287 165.682 99.1097 166.04C98.9908 166.398 98.7737 166.715 98.4833 166.955Z" fill="#3F3D56"/>
<path d="M83.5164 179.748L82.9658 180.965L82.6256 180.815L82.6241 180.808L4.54484 145.313L69.7427 193.336L69.749 193.335L69.9217 193.468L69.1355 194.545L68.0019 193.709L3.75235 146.392C3.49968 146.21 3.31847 145.945 3.24007 145.643C3.16166 145.341 3.19099 145.021 3.32298 144.738C3.45496 144.455 3.68132 144.228 3.96288 144.095C4.24445 143.962 4.56353 143.932 4.86493 144.01C4.93877 144.028 5.01067 144.053 5.07959 144.085L83.2208 179.615L83.5164 179.748Z" fill="#3F3D56"/>
</g>
<defs>
<clipPath id="clip0_335_2673">
<rect width="332" height="432" fill="white"/>
</clipPath>
</defs>
</svg>
