<svg width="20" height="21" viewBox="0 0 20 21" fill="none" xmlns="http://www.w3.org/2000/svg">
<g clip-path="url(#clip0_528_1607)">
<path d="M10 0.5C4.48583 0.5 0 4.98583 0 10.5C0 16.0142 4.48583 20.5 10 20.5C15.5142 20.5 20 16.0142 20 10.5C20 4.98583 15.5142 0.5 10 0.5ZM6.66667 18.1367V18C6.66667 16.1617 8.16167 14.6667 10 14.6667C11.8383 14.6667 13.3333 16.1617 13.3333 18V18.1367C12.3117 18.5842 11.185 18.8333 10 18.8333C8.815 18.8333 7.68833 18.5842 6.66667 18.1367ZM14.9375 17.2092C14.5575 14.8267 12.4883 13 10 13C7.51167 13 5.44333 14.8267 5.0625 17.2092C3.00417 15.69 1.66667 13.2483 1.66667 10.5C1.66667 5.905 5.405 2.16667 10 2.16667C14.595 2.16667 18.3333 5.905 18.3333 10.5C18.3333 13.2483 16.9958 15.69 14.9375 17.2092ZM10 4.66667C8.16167 4.66667 6.66667 6.16167 6.66667 8C6.66667 9.83833 8.16167 11.3333 10 11.3333C11.8383 11.3333 13.3333 9.83833 13.3333 8C13.3333 6.16167 11.8383 4.66667 10 4.66667ZM10 9.66667C9.08083 9.66667 8.33333 8.91917 8.33333 8C8.33333 7.08083 9.08083 6.33333 10 6.33333C10.9192 6.33333 11.6667 7.08083 11.6667 8C11.6667 8.91917 10.9192 9.66667 10 9.66667Z" fill="#DADADA"/>
</g>
<defs>
<clipPath id="clip0_528_1607">
<rect width="20" height="20" fill="white" transform="translate(0 0.5)"/>
</clipPath>
</defs>
</svg>
